<svg version="1.2" xmlns="http://www.w3.org/2000/svg" viewBox="0 0 1000 1000" width="1000" height="1000">
	<title>day92-freelancing</title>
	<style>
		.s0 { opacity: .64;fill: #68cce9 } 
		.s1 { fill: #282323;stroke: #000000;stroke-linecap: round;stroke-linejoin: round;stroke-width: 4 } 
		.s2 { fill: #442c2a } 
		.s3 { opacity: .37;fill: #442c2a } 
		.s4 { fill: none;stroke: #000000;stroke-linecap: round;stroke-linejoin: round;stroke-width: 4 } 
		.s5 { fill: #151e28 } 
		.s6 { fill: #2a3749 } 
		.s7 { opacity: .67;fill: #151e28 } 
		.s8 { fill: #9b2121 } 
		.s9 { fill: #f1534d } 
		.s10 { fill: #f46262 } 
		.s11 { fill: #ffc897 } 
		.s12 { fill: #e5a973 } 
		.s13 { fill: #607691 } 
		.s14 { fill: #b5b5b5 } 
		.s15 { opacity: .21;fill: #7e7e7e } 
		.s16 { opacity: .66;fill: #b5b5b5 } 
		.s17 { fill: none;stroke: #000000;stroke-linecap: round;stroke-linejoin: round;stroke-width: 6 } 
		.s18 { fill: #000000 } 
		.s19 { fill: #7e7e7e } 
		.s20 { fill: #231a17 } 
		.s21 { fill: none;stroke: #000000;stroke-linecap: round;stroke-linejoin: round;stroke-width: 3 } 
		.s22 { fill: none;stroke: #000000;stroke-linecap: round;stroke-linejoin: round;stroke-width: 2 } 
	</style>
	<g id="XMLID_1207_">
		<path id="XMLID_1193_" fill-rule="evenodd" class="s0" d="m492.2 768.1c-130 0-235.1-21.1-235.1-47.3 0-26.2 105.1-47.3 235.1-47.3 130 0 235.1 21.1 235.1 47.3 0 26.2-105.1 47.3-235.1 47.3z"/>
		<g id="XMLID_43_">
			<path id="XMLID_1211_" class="s1" d="m379.5 713.2c3.3-10.7 13.4-16.4 29.8-21.2 10.4-3 23.6-4.4 44.3-8.6 10.1-2 17.2-6 17.2-6v11.5c0 0-68.5 13.5-79.2 31.2-5.2 8.7-3.6 30 20.9 32.2-7.5 1.1-19.8-0.8-26.4-7.5-8.2-8.3-10.4-19.4-6.6-31.6z"/>
			<path id="XMLID_1210_" class="s2" d="m470.8 688.9c0 0-41 7.6-62.9 17-19.2 8.3-18.6 16.9-19.1 25.7-0.3 5.1 3.3 17.7 17.9 19.9 17.4 2.6 37.9-0.2 64.1-16.9 0-40.9 0-45.7 0-45.7z"/>
			<path id="XMLID_53_" class="s3" d="m388.8 731.6c0.4-7.1 0.1-14.1 10.1-20.9-0.4 2.5-0.5 4.9-0.6 7.4-0.3 5.1 12-1.5 26.6 0.6 15.2 2.3 24.2 19.7 45.9 8q0 3.8 0 7.8c-26.2 16.7-46.7 19.4-64.1 16.9-14.6-2.1-18.2-14.8-17.9-19.8z"/>
			<path id="XMLID_47_" class="s4" d="m470.8 688.9c0 0-41 7.6-62.9 17-19.2 8.3-18.6 16.9-19.1 25.7-0.3 5.1 3.3 17.7 17.9 19.9 17.4 2.6 37.9-0.2 64.1-16.9 0-40.9 0-45.7 0-45.7z"/>
			<path id="XMLID_46_" class="s4" d="m432.8 712.4c-3.3 1.8-2.5 19.3 5.5 21.7"/>
			<path id="XMLID_45_" class="s4" d="m445.3 711.1c-3.4 4.8-1 16.1 5.1 18.9"/>
			<path id="XMLID_44_" class="s4" d="m456.8 707.1c-3.4 4.8-1 16.1 5.1 18.9"/>
		</g>
		<path id="XMLID_77_" class="s5" d="m574.8 655.3c-21.6 15-52.3 23.6-84.4 23.6-32 0-62.8-8.6-84.4-23.6-9.9-6.9-26.5-21.3-26.5-40.5 0-19.2 16.6-33.6 26.5-40.5 21.6-15 52.3-23.6 84.4-23.6 32 0 62.8 8.6 84.4 23.6 9.9 6.9 26.5 21.3 26.5 40.5 0 19.2-16.6 33.6-26.5 40.5z"/>
		<path id="XMLID_76_" class="s6" d="m673.7 630.8c-0.4 2-0.8 3.9-1.4 5.9-15.6 56.9-90.8 100.1-181.3 100.1-90.7 0-166.1-43.4-181.4-100.5-0.4-1.6-0.8-3.2-1.1-4.8q-0.6-4.5 0.3-9c3.7-16.8 24.1-26.5 45.6-21.7 14.1 3.1 25.1 11.8 30 22.1 0.5 2.2 1.3 4.4 2.2 6.5 5.2 12 15.6 21 22.6 26 20.9 15 50.8 23.6 81.8 23.6 31.1 0 60.9-8.6 81.8-23.6 7.1-5.1 17.6-14.2 22.7-26.2 0.8-1.9 1.5-4 2-6 4.8-10.4 15.9-19.1 30.1-22.3 21.5-4.8 41.9 5 45.6 21.7 0.7 2.6 0.8 5.4 0.5 8.2z"/>
		<path id="XMLID_1209_" class="s7" d="m673.2 622.4c-0.1-0.5-0.2-0.9-0.4-1.4-0.3 1.6-0.7 3.3-1.2 4.9-15.4 56.9-90.7 100.1-181.1 100.1-90.7 0-166.1-43.4-181.4-100.5-0.2-0.6-0.3-1.2-0.5-1.9-0.4 2.6-0.5 5.2-0.1 7.7 0.3 1.6 0.7 3.2 1.1 4.8 15.3 57.1 90.7 100.5 181.4 100.5 90.5 0 165.7-43.2 181.3-100.1 0.5-1.9 1-3.9 1.4-5.9 0.3-2.6 0.2-5.4-0.5-8.2z"/>
		<path id="XMLID_56_" class="s4" d="m673.7 630.8c-0.4 2-0.8 3.9-1.4 5.9-15.6 56.9-90.8 100.1-181.3 100.1-90.7 0-166.1-43.4-181.4-100.5-0.4-1.6-0.8-3.2-1.1-4.8q-0.6-4.5 0.3-9c3.7-16.8 24.1-26.5 45.6-21.7 14.1 3.1 25.1 11.8 30 22.1 0.5 2.2 1.3 4.4 2.2 6.5 5.2 12 15.6 21 22.6 26 20.9 15 50.8 23.6 81.8 23.6 31.1 0 60.9-8.6 81.8-23.6 7.1-5.1 17.6-14.2 22.7-26.2 0.8-1.9 1.5-4 2-6 4.8-10.4 15.9-19.1 30.1-22.3 21.5-4.8 41.9 5 45.6 21.7 0.7 2.6 0.8 5.4 0.5 8.2z"/>
		<path id="XMLID_75_" fill-rule="evenodd" class="s8" d="m492.2 648.4c-49.8 0-90.1-13.7-90.1-30.6 0-16.9 40.3-30.6 90.1-30.6 49.8 0 90.1 13.7 90.1 30.6 0 16.9-40.3 30.6-90.1 30.6z"/>
		<path id="XMLID_31_" fill-rule="evenodd" class="s4" d="m492.2 648.4c-49.8 0-90.1-13.7-90.1-30.6 0-16.9 40.3-30.6 90.1-30.6 49.8 0 90.1 13.7 90.1 30.6 0 16.9-40.3 30.6-90.1 30.6z"/>
		<g id="XMLID_89_">
			<path id="XMLID_69_" class="s9" d="m594.8 551h-207.6c-15.9 0-28.2-13.9-26.2-29.7l9.2-73.5c2.6-21 20.4-36.7 41.6-36.7h158.6c21.1 0 38.9 15.7 41.6 36.7l9.2 73.5c1.8 15.8-10.5 29.7-26.4 29.7z"/>
			<path id="XMLID_24_" class="s4" d="m594.8 551h-207.6c-15.9 0-28.2-13.9-26.2-29.7l9.2-73.5c2.6-21 20.4-36.7 41.6-36.7h158.6c21.1 0 38.9 15.7 41.6 36.7l9.2 73.5c1.8 15.8-10.5 29.7-26.4 29.7z"/>
			<path id="XMLID_90_" class="s4" d=""/>
			<g id="XMLID_1191_">
				<path id="XMLID_1189_" fill-rule="evenodd" class="s4" d="m409.7 473.2l-2 25.1"/>
				<path id="XMLID_1192_" fill-rule="evenodd" class="s4" d="m573.8 473.2l2 25.1"/>
			</g>
		</g>
		<g id="XMLID_1194_">
			<path id="XMLID_1202_" class="s9" d="m594.8 551h-207.6c-15.9 0-28.2-13.9-26.2-29.7l9.2-73.5c2.6-21 20.4-36.7 41.6-36.7h158.6c21.1 0 38.9 15.7 41.6 36.7l9.2 73.5c1.8 15.8-10.5 29.7-26.4 29.7z"/>
			<g id="XMLID_4_" style="opacity: .24">
				<path id="XMLID_1208_" class="s8" d="m370.1 455.6c2.6-21 20.4-36.7 41.6-36.7h158.6c21.1 0 38.9 15.7 41.6 36.7l9.1 72.9c0.3-2.3 0.4-4.7 0.1-7.2l-9.2-73.5c-2.6-21-20.4-36.7-41.6-36.7h-158.6c-21.1 0-38.9 15.7-41.6 36.7l-9.2 73.5c-0.3 2.4-0.3 4.8 0.1 7.2z"/>
				<path id="XMLID_8_" class="s8" d="m420.9 418.9c0 0 12.3 2.2 13.3 9 0.8 5.5 0.7 9.1 2.8 11.3 2.1 2.2 7 6.7 16.9 6.7-5.5-5.5-5.6-24.8-7.1-24.8-1.4 0-5-9.6-5-9.6l-4.8-2.2c0.1 0-17.6 2.2-16.1 9.6z"/>
				<path id="XMLID_10_" class="s8" d="m552.3 418.9c0 0-12.3 2.2-13.3 9-0.8 5.5-0.7 9.1-2.8 11.3-2.1 2.1-7 6.7-16.9 6.7 5.5-5.5 5.6-24.8 7.1-24.8 1.4 0 5-9.6 5-9.6l4.8-2.2c-0.1 0 17.6 2.2 16.1 9.6z"/>
			</g>
			<path id="XMLID_1201_" class="s4" d="m594.8 551h-207.6c-15.9 0-28.2-13.9-26.2-29.7l9.2-73.5c2.6-21 20.4-36.7 41.6-36.7h158.6c21.1 0 38.9 15.7 41.6 36.7l9.2 73.5c1.8 15.8-10.5 29.7-26.4 29.7z"/>
			<path id="XMLID_1200_" class="s4" d=""/>
			<g id="XMLID_1195_">
				<path id="XMLID_1199_" fill-rule="evenodd" class="s4" d="m409.7 473.2l-2 25.1"/>
				<path id="XMLID_1196_" fill-rule="evenodd" class="s4" d="m573.8 473.2l2 25.1"/>
			</g>
		</g>
		<g id="XMLID_78_">
			<path id="XMLID_80_" class="s8" d="m464.3 369.3l-32.9-1.7-15.4 1.7c0 0-10.3 7.7-10.3 9.8 0 2.1 1 19.2 1 19.2 0 0 24.3 3.3 26.9 5.8 2.6 2.5 18 16.9 18 16.9l14.9-5.8 7.8-20.8z"/>
			<path id="XMLID_72_" class="s9" d="m458.5 356.6h-38c-15.3 0-27.8 12.4-27.8 27.8 0 15.3 12.4 27.8 27.8 27.8h5c8.1 0 14.6 6.5 14.6 14.6v1.5c0 9.7 7.9 17.6 17.6 17.6v-18c0.2 0 0.4 0.2 0.4 0.4v-1.5c0-18-14.6-32.6-32.6-32.6h-5c-5.4 0-9.8-4.4-9.8-9.8 0-5.4 4.4-9.8 9.8-9.8h38z"/>
			<path id="XMLID_81_" class="s4" d="m456.2 415.5c-4.6-12.4-16.6-21.4-30.6-21.4h-5c-5.4 0-9.8-4.4-9.8-9.8 0-5.4 4.4-9.8 9.8-9.8h38v-18h-38c-15.3 0-27.8 12.4-27.8 27.8 0 15.3 12.4 27.8 27.8 27.8h5c8.1 0 14.6 6.5 14.6 14.6v1.5c0 9.7 7.9 17.6 17.6 17.6"/>
		</g>
		<g id="XMLID_28_">
			<path id="XMLID_82_" class="s8" d="m507.8 369.3l32.9-1.7 15.4 1.7c0 0 10.3 7.7 10.3 9.8 0 2.1-1 19.2-1 19.2 0 0-24.3 3.3-26.9 5.8-2.6 2.6-18 16.9-18 16.9l-14.9-5.8-7.8-20.8z"/>
			<path id="XMLID_79_" class="s9" d="m513.6 356.6h38c15.3 0 27.8 12.4 27.8 27.8 0 15.3-12.4 27.8-27.8 27.8h-5c-8.1 0-14.6 6.5-14.6 14.6v1.5c0 9.7-7.9 17.6-17.6 17.6v-18c-0.2 0-0.4 0.2-0.4 0.4v-1.5c0-18 14.6-32.6 32.6-32.6h5c5.4 0 9.8-4.4 9.8-9.8 0-5.4-4.4-9.8-9.8-9.8h-38z"/>
			<path id="XMLID_71_" class="s4" d="m516 415.5c4.6-12.4 16.6-21.4 30.6-21.4h5c5.4 0 9.8-4.4 9.8-9.8 0-5.4-4.4-9.8-9.8-9.8h-38v-18h38c15.3 0 27.8 12.4 27.8 27.8 0 15.3-12.4 27.8-27.8 27.8h-5c-8.1 0-14.6 6.5-14.6 14.6v1.5c0 9.7-7.9 17.6-17.6 17.6"/>
		</g>
		<path id="XMLID_74_" fill-rule="evenodd" class="s10" d="m487.9 431.7c-21.6 0-39-17.4-39-39 0-21.6 17.4-39 39-39 21.6 0 39 17.4 39 39 0 21.6-17.4 39-39 39z"/>
		<path id="XMLID_2426_" class="s9" d="m450.6 381.2c10.8 6.9 23.6 11 37.3 11 13.7 0 26.5-4 37.3-11-4.9-16-19.7-27.6-37.3-27.6-17.5 0.1-32.4 11.7-37.3 27.6z"/>
		<path id="XMLID_23_" fill-rule="evenodd" class="s4" d="m487.9 431.7c-21.6 0-39-17.4-39-39 0-21.6 17.4-39 39-39 21.6 0 39 17.4 39 39 0 21.6-17.4 39-39 39z"/>
		<path id="XMLID_70_" class="s11" d="m487.9 415.3c-12.7 0-23-10.3-23-23v-17.2c0-3.2 2.6-5.8 5.8-5.8h34.5c3.2 0 5.8 2.6 5.8 5.8v17.2c-0.1 12.7-10.4 23-23.1 23z"/>
		<path id="XMLID_2425_" class="s12" d="m505.2 369.3h-34.5c-3.2 0-5.8 2.8-5.8 6.2v14.1c7.2 2.7 14.9 4.2 23 4.2 8.1 0 15.8-1.5 23-4.2v-14.1c0-3.4-2.6-6.2-5.7-6.2z"/>
		<path id="XMLID_15_" class="s4" d="m487.9 415.3c-12.7 0-23-10.3-23-23v-17.2c0-3.2 2.6-5.8 5.8-5.8h34.5c3.2 0 5.8 2.6 5.8 5.8v17.2c-0.1 12.7-10.4 23-23.1 23z"/>
		<path id="XMLID_25_" class="s4" d=""/>
		<path id="XMLID_30_" fill-rule="evenodd" class="s13" d="m491.4 674.4h21.4v68.3h-21.4z"/>
		<path id="XMLID_33_" fill-rule="evenodd" class="s4" d="m491.4 674.4h21.4v68.3h-21.4z"/>
		<path id="XMLID_54_" class="s4" d="m386.5 629.2c-0.9-2.1-1.6-4.2-2.2-6.5 1.1 2.2 1.8 4.3 2.2 6.5z"/>
		<path id="XMLID_51_" class="s4" d="m595.6 629c0.4-2.1 1.1-4.1 2-6-0.5 2.1-1.2 4.1-2 6z"/>
		<g id="XMLID_88_">
			<path id="XMLID_73_" class="s14" d="m595.3 624.2h-208.5c-7.4 0-13.7-5.5-14.7-12.9l-13-101.8c-1.1-8.8 5.8-16.7 14.7-16.7h234.5c8.9 0 15.8 7.8 14.7 16.7l-13 101.8c-1 7.3-7.3 12.9-14.7 12.9z"/>
			<path id="XMLID_1188_" class="s15" d="m609.9 604.9c-0.9 7.4-7.2 12.9-14.7 12.9h-208.4c-7.4 0-13.7-5.5-14.7-12.9l-12.8-100.3c-0.3 1.6-0.4 3.2-0.2 4.9l13 101.8c0.9 7.4 7.2 12.9 14.7 12.9h208.5c7.4 0 13.7-5.5 14.7-12.9l13-101.8c0.2-1.7 0.1-3.3-0.2-4.9z"/>
			<path id="XMLID_91_" class="s15" d="m359.2 510.4c1.2-6.8 7.2-12.2 14.5-12.2h234.5c7.4 0 13.3 5.3 14.5 12.2l0.1-1c1.1-8.8-5.8-16.7-14.7-16.7h-234.3c-8.9 0-15.8 7.8-14.7 16.7z"/>
			<path id="XMLID_29_" class="s4" d="m595.3 624.2h-208.5c-7.4 0-13.7-5.5-14.7-12.9l-13-101.8c-1.1-8.8 5.8-16.7 14.7-16.7h234.5c8.9 0 15.8 7.8 14.7 16.7l-13 101.8c-1 7.3-7.3 12.9-14.7 12.9z"/>
			<path id="XMLID_1190_" class="s16" d="m500.9 552.3c-4.5 0-8.1-3.6-8.1-8.1 0-0.3 0-0.6 0.1-0.9-0.8-0.1-1.6-0.2-2.4-0.2-7.3 0-13.3 6-13.3 13.3 0 7.3 6 13.3 13.3 13.3 7.3 0 13.3-6 13.3-13.3 0-1.5-0.3-3-0.7-4.4-0.7 0.1-1.4 0.3-2.2 0.3z"/>
		</g>
		<g id="XMLID_39_">
			<path id="XMLID_36_" class="s1" d="m604.1 713.2c-3.3-10.7-13.4-16.4-29.8-21.2-10.4-3-23.6-4.4-44.3-8.6-10.1-2-17.2-6-17.2-6v11.5c0 0 68.5 13.5 79.2 31.2 5.2 8.7 3.6 30-20.9 32.2 7.5 1.1 19.8-0.8 26.4-7.5 8.2-8.3 10.4-19.4 6.6-31.6z"/>
			<path id="XMLID_52_" class="s2" d="m512.8 688.9c0 0 41 7.6 62.9 17 19.2 8.3 18.6 16.9 19.1 25.7 0.3 5.1-3.3 17.7-17.9 19.9-17.4 2.6-37.9-0.2-64.1-16.9 0-40.9 0-45.7 0-45.7z"/>
			<path id="XMLID_1212_" class="s3" d="m594.8 731.6c-0.4-7.1-0.1-14.1-10.1-20.9 0.4 2.5 0.5 4.9 0.6 7.4 0.3 5.1-3.3 17.7-17.9 19.9-15.2 2.3-32.9 0.4-54.6-11.3q0 3.8 0 7.8c26.2 16.7 46.7 19.4 64.1 16.9 14.7-2.1 18.2-14.8 17.9-19.8z"/>
			<path id="XMLID_34_" class="s4" d="m512.8 688.9c0 0 41 7.6 62.9 17 19.2 8.3 18.6 16.9 19.1 25.7 0.3 5.1-3.3 17.7-17.9 19.9-17.4 2.6-37.9-0.2-64.1-16.9 0-40.9 0-45.7 0-45.7z"/>
			<path id="XMLID_37_" class="s4" d="m550.8 712.4c3.3 1.8 2.5 19.3-5.5 21.7"/>
			<path id="XMLID_38_" class="s4" d="m538.3 711.1c3.4 4.8 1 16.1-5.1 18.9"/>
			<path id="XMLID_40_" class="s4" d="m526.8 707.1c3.4 4.8 1 16.1-5.1 18.9"/>
		</g>
		<path id="XMLID_83_" fill-rule="evenodd" class="s17" d="m452.8 435.7v53.2"/>
		<path id="XMLID_84_" fill-rule="evenodd" class="s17" d="m520.3 435.7v37.5"/>
		<path id="XMLID_27_" fill-rule="evenodd" class="s18" d="m520.3 484.5c-4.6 0-8.3-3.7-8.3-8.3 0-4.6 3.7-8.3 8.3-8.3 4.6 0 8.3 3.7 8.3 8.3 0 4.6-3.7 8.3-8.3 8.3z"/>
		<path id="XMLID_86_" fill-rule="evenodd" class="s19" d="m520.3 478.6c-1.9 0-3.4-1.5-3.4-3.4 0-1.9 1.5-3.4 3.4-3.4 1.9 0 3.4 1.5 3.4 3.4 0 1.9-1.5 3.4-3.4 3.4z"/>
		<g id="XMLID_41_">
			<path id="XMLID_5_" class="s11" d="m487.9 386.2c-34.8 0-63.1-28.2-63.1-63.1v-73.2h126.2v73.2c0 34.8-28.2 63.1-63.1 63.1z"/>
			<path id="XMLID_1198_" class="s12" d="m487.9 377.5c-34.8 0-63.1-28.2-63.1-63.1v8.7c0 34.8 28.2 63.1 63.1 63.1 34.8 0 63.1-28.2 63.1-63.1v-8.7c0 34.8-28.2 63.1-63.1 63.1z"/>
			<path id="XMLID_2424_" class="s4" d="m487.9 386.2c-34.8 0-63.1-28.2-63.1-63.1v-73.2h126.2v73.2c0 34.8-28.2 63.1-63.1 63.1z"/>
			<path id="XMLID_1197_" class="s12" d="m551.5 257.2c-0.2-3.4-0.4-6.9-0.5-10.3-42 2-84.2 1.7-126.1-2-0.3 3.9-0.5 7.8-0.8 11.7 1.9 1.7 3.9 3.5 5.8 5.2 1.6 0.8 3.7 1.9 5.6 2.9 8.4 4.4 20.1 10 31.3 12.2 4.1 0.8 8.4 1.2 12.8 1.1 18.9-0.2 34.8-7.7 41.5-10.8 1-0.5 1.8-0.9 2.3-1 0.4-0.2 0.8-0.3 1.4-0.3 1.2 0 2.6 0.3 4.3 0.6 2.2 0.5 4.8 1 7.7 0.8 3.3-0.2 6.3-1.2 9.2-3.1 1.7-2.4 3.6-4.7 5.5-7z"/>
			<path id="XMLID_68_" class="s20" d="m521.1 219.2c0 0-50.5-33.3-92.3 3.9-7.8 6.9-10.9 16.8-10.9 25.9v48.2h7v-35c0-2.6 1.8-4.6 4-4.6 3.6 0 23.1 10.4 39.6 13.3 24.9 4.3 47.6-7.2 52.5-8.9 8.4-3 15.2 7.4 25.8-4.3h0.4c2.2 0 4 2.1 4 4.6v35h7v-48c-0.2-11.8-13.8-41.4-37.1-30.1z"/>
			<g id="XMLID_2783_" style="opacity: .34">
				<path id="XMLID_2784_" fill-rule="evenodd" class="s20" d="m417.8 290.6h7v6.6h-7z"/>
				<path id="XMLID_2785_" fill-rule="evenodd" class="s20" d="m551 290.6h7v6.6h-7z"/>
			</g>
			<path id="XMLID_3_" class="s4" d="m521.1 219.2c0 0-50.5-33.3-92.3 3.9-7.8 6.9-10.9 16.8-10.9 25.9v48.2h7v-35c0-2.6 1.8-4.6 4-4.6 3.6 0 23.1 10.4 39.6 13.3 24.9 4.3 47.6-7.2 52.5-8.9 8.4-3 15.2 7.4 25.8-4.3h0.4c2.2 0 4 2.1 4 4.6v35h7v-48c-0.2-11.8-13.8-41.4-37.1-30.1z"/>
			<path id="XMLID_6_" class="s4" d="m478.4 251.7c0 0-54.2 3.5-65.7-25.3"/>
			<path id="XMLID_9_" class="s4" d="m486.1 244.8c0 0-52.2-3.3-65.8-32.1"/>
			<path id="XMLID_85_" class="s11" d="m551 289.4v32.8c7 0 12.6-7.3 12.6-16.4 0-9.1-5.6-16.4-12.6-16.4z"/>
			<path id="XMLID_1205_" class="s12" d="m551 291.2v29.1c4.1-2.7 6.9-8.2 6.9-14.6 0-6.3-2.8-11.8-6.9-14.5z"/>
			<path id="XMLID_12_" class="s4" d="m551 289.4v32.8c7 0 12.6-7.3 12.6-16.4 0-9.1-5.6-16.4-12.6-16.4z"/>
			<path id="XMLID_87_" class="s11" d="m424.9 289.4v32.8c-7 0-12.6-7.3-12.6-16.4-0.1-9.1 5.6-16.4 12.6-16.4z"/>
			<path id="XMLID_1203_" class="s12" d="m424.9 291.8c-3.6 2.9-6.1 8.1-6.1 14 0 5.9 2.4 11.1 6.1 14z"/>
			<path id="XMLID_11_" class="s4" d="m424.9 289.4v32.8c-7 0-12.6-7.3-12.6-16.4-0.1-9.1 5.6-16.4 12.6-16.4z"/>
			<path id="XMLID_7_" class="s4" d="m485.3 316.1l-4.2 13.7c0 1.5 4.9 0.3 9.9 1.5"/>
			<path id="XMLID_16_" class="s21" d="m508.9 341.7c1.5 10.4-11.9 19.6-22.4 17.7"/>
			<g id="XMLID_19_">
				<path id="XMLID_14_" fill-rule="evenodd" class="s22" d="m465.2 304.5c-2.3 0-4.2-2-4.2-4.5 0-2.5 1.9-4.5 4.2-4.5 2.3 0 4.2 2 4.2 4.5 0 2.5-1.9 4.5-4.2 4.5z"/>
				<path id="XMLID_20_" fill-rule="evenodd" class="s18" d="m465.2 304.5c-2.3 0-4.2-2-4.2-4.5 0-2.5 1.9-4.5 4.2-4.5 2.3 0 4.2 2 4.2 4.5 0 2.5-1.9 4.5-4.2 4.5z"/>
				<path id="XMLID_17_" class="s21" d="m450.7 290.5c2.1-2.5 7-4.2 12.8-4.2 4.6 0 8.6 1.1 11.1 2.8"/>
			</g>
			<g id="XMLID_13_">
				<path id="XMLID_22_" fill-rule="evenodd" class="s22" d="m511.2 304.5c-2.3 0-4.2-2-4.2-4.5 0-2.5 1.9-4.5 4.2-4.5 2.3 0 4.2 2 4.2 4.5 0 2.5-1.9 4.5-4.2 4.5z"/>
				<path id="XMLID_21_" fill-rule="evenodd" class="s18" d="m511.2 304.5c-2.3 0-4.2-2-4.2-4.5 0-2.5 1.9-4.5 4.2-4.5 2.3 0 4.2 2 4.2 4.5 0 2.5-1.9 4.5-4.2 4.5z"/>
				<path id="XMLID_18_" class="s21" d="m525.7 290.5c-2.1-2.5-7-4.2-12.8-4.2-4.6 0-8.6 1.1-11.1 2.8"/>
			</g>
		</g>
	</g>
</svg>